<?xml version="1.0" encoding="UTF-8" standalone="no"?>
<svg
   xmlns:dc="http://purl.org/dc/elements/1.1/"
   xmlns:cc="http://creativecommons.org/ns#"
   xmlns:rdf="http://www.w3.org/1999/02/22-rdf-syntax-ns#"
   xmlns:svg="http://www.w3.org/2000/svg"
   xmlns="http://www.w3.org/2000/svg"
   version="1.1"
   id="Capa_1"
   x="0px"
   y="0px"
   viewBox="0 0 326.36317 326.36317"
   xml:space="preserve"
   width="498.98303"
   height="498.98303"><metadata
     id="metadata41"><rdf:RDF><cc:Work
         rdf:about=""><dc:format>image/svg+xml</dc:format><dc:type
           rdf:resource="http://purl.org/dc/dcmitype/StillImage" /><dc:title></dc:title></cc:Work></rdf:RDF></metadata><defs
     id="defs39" /><circle
     style="fill:#ffffff;fill-opacity:1;stroke:none;stroke-width:0.89999998;stroke-miterlimit:4;stroke-dasharray:none"
     id="path3577"
     cx="-163.18158"
     cy="163.18158"
     r="163.18159"
     transform="scale(-1,1)" /><g
     id="g3"
     transform="matrix(0.66571794,0,0,0.66571794,55.639105,37.325856)"
     style="fill:#8100cc;fill-opacity:1"><path
       d="m 333.196,155.999 -16.067,0 0,-73.909 c 0,-17.719 -14.415,-32.134 -32.134,-32.134 l -21.761,0 L 240.965,9.917 C 237.571,3.798 231.112,0 224.107,0 c -3.265,0 -6.504,0.842 -9.364,2.429 l -85.464,47.526 -95.464,0 C 16.096,49.955 1.681,64.37 1.681,82.089 l 0,220.653 c 0,17.719 14.415,32.134 32.134,32.134 l 251.18,0 c 17.719,0 32.134,-14.415 32.134,-32.134 l 0,-64.802 16.067,0 0,-81.941 z m -48.201,-93.19 c 9.897,0 17.982,7.519 19.068,17.14 l -24.152,0 -9.525,-17.14 14.609,0 z M 220.996,13.663 c 3.014,-1.69 7.07,-0.508 8.734,2.494 l 35.476,63.786 -163.408,0 119.198,-66.28 z m 83.279,289.079 c 0,10.63 -8.651,19.281 -19.281,19.281 l -251.179,0 c -10.63,0 -19.281,-8.651 -19.281,-19.281 l 0,-220.652 c 0,-10.63 8.651,-19.281 19.281,-19.281 l 72.353,0 -30.823,17.141 -37.513,0 c -3.554,0 -6.427,2.879 -6.427,6.427 0,3.548 2.873,6.427 6.427,6.427 l 14.396,0 234.83,0 17.217,0 0,63.201 -46.999,0 c -21.826,0 -39.589,17.764 -39.589,39.589 l 0,2.764 c 0,21.826 17.764,39.589 39.589,39.589 l 46.999,0 0,64.795 z m 16.067,-77.655 -3.213,0 -59.853,0 c -14.743,0 -26.736,-11.992 -26.736,-26.736 l 0,-2.764 c 0,-14.743 11.992,-26.736 26.736,-26.736 l 59.853,0 3.213,0 0,56.236 z m -43.381,-27.59 c 0,7.841 -6.35,14.19 -14.19,14.19 -7.841,0 -14.19,-6.35 -14.19,-14.19 0,-7.84 6.35,-14.19 14.19,-14.19 7.841,-10e-4 14.19,6.355 14.19,14.19 z"
       id="path5"
       style="fill:#8100cc;fill-opacity:1" /></g><g
     id="g7"
     transform="translate(-2.9487557,-8.1812691)" /><g
     id="g9"
     transform="translate(-2.9487557,-8.1812691)" /><g
     id="g11"
     transform="translate(-2.9487557,-8.1812691)" /><g
     id="g13"
     transform="translate(-2.9487557,-8.1812691)" /><g
     id="g15"
     transform="translate(-2.9487557,-8.1812691)" /><g
     id="g17"
     transform="translate(-2.9487557,-8.1812691)" /><g
     id="g19"
     transform="translate(-2.9487557,-8.1812691)" /><g
     id="g21"
     transform="translate(-2.9487557,-8.1812691)" /><g
     id="g23"
     transform="translate(-2.9487557,-8.1812691)" /><g
     id="g25"
     transform="translate(-2.9487557,-8.1812691)" /><g
     id="g27"
     transform="translate(-2.9487557,-8.1812691)" /><g
     id="g29"
     transform="translate(-2.9487557,-8.1812691)" /><g
     id="g31"
     transform="translate(-2.9487557,-8.1812691)" /><g
     id="g33"
     transform="translate(-2.9487557,-8.1812691)" /><g
     id="g35"
     transform="translate(-2.9487557,-8.1812691)" /></svg>